<svg xmlns="http://www.w3.org/2000/svg" viewBox="0 0 265.36 82.71"><defs><style>.cls-1{fill:#836241;}.cls-1,.cls-2{stroke:#000;stroke-miterlimit:10;stroke-width:2px;}.cls-2{fill:#fff;}</style></defs><g id="Layer_2" data-name="Layer 2"><g id="Layer_1-2" data-name="Layer 1"><path class="cls-1" d="M1,59.3H11V21.92L23.33,59.3H35.12L46,22.93V59.3h9.57L56,4.75H42L30,45.16,18,4.75H1Z"/><path class="cls-1" d="M209,26h10C217,11.88,205.78,1.83,194,1.72c-14.89-.14-25,15.64-25,29.3.05,14.17,11.1,30,26,29.29,11.34-.53,21.86-10.51,24-24.24H209c-2,8-8.25,13.74-15,14.14-9.56.57-17.24-9.65-17-19.19.22-9.07,7.61-18.67,17-18.19C200.6,13.17,206.72,18.4,209,26Z"/><polyline class="cls-1" points="226.04 6.66 226.04 60.37 234.7 60.37 234.7 38.48 254.59 38.48 254.59 60.37 264.36 60.37 264.36 5.8 255.15 5.8 255.15 27.99 234.7 27.99 235 5.76 226.04 5.76 224.94 5.76"/><path class="cls-1" d="M78,58.29H89.5V39.1h12.55a168.39,168.39,0,0,0,8.36,17.17C117,68,120.51,73.7,127.14,77.49c8.75,5,20.85,5.84,30.32,1a22.43,22.43,0,0,0,9.41-8.08c5.38-8.71,2.56-20.19-2.09-27.28C162.08,39,157.05,35,147,27c-5.66-4.52-9.48-7.12-9.41-11.12a7.9,7.9,0,0,1,5.22-7.07c4-1.34,8.72,1.32,10.46,5.05,2.11,4.53-.87,8.85-1.05,9.09h10.46a16.82,16.82,0,0,0-3.14-15.15c-7.62-7.47-18.47-8.69-25.09-4-4.32,3-7.23,8.84-6.27,14.14.74,4.11,4,6.78,10.45,12.13,4,3.27,6.88,4.86,12.55,10.1,1.7,1.57,2.55,2.36,3.14,3,1.49,1.71,8.6,10.4,5.22,19.19a16.35,16.35,0,0,1-7.32,8.09c-5.9,3.24-15.25,3.75-20.91-2-5.86-6-5.89-16.87,0-21.22,3.38-2.49,9.71-3.59,13.6,0,3.63,3.35,4,9.68,0,14.14h11.5c.25-1.17,2.09-10.4-4.19-17.17-7-7.53-19.69-7.41-27.18-2a18.75,18.75,0,0,0-6.27,8.08l-7.32-15.15c.72-.56,7.78-6.15,7.32-15.16-.37-7.12-5.31-13.5-12.55-16.16H78Z"/><path class="cls-2" d="M90,27.71v-15h11a9.3,9.3,0,0,1,4,9,9.29,9.29,0,0,1-4,6Z"/><polygon class="cls-1" points="64.33 4.75 64.33 59.3 74.14 59.3 74.76 4.75 69.54 4.75 64.33 4.75"/></g></g></svg>