<svg xmlns="http://www.w3.org/2000/svg" viewBox="0 0 97.36 60.65"><defs><style>.cls-1{fill:#836241;stroke:#000;stroke-miterlimit:10;stroke-width:2px;}</style></defs><g id="Layer_2" data-name="Layer 2"><g id="Layer_1-2" data-name="Layer 1"><path class="cls-1" d="M41,25.25H51C49,11.16,37.78,1.11,26,1,11.11.86,1,16.65,1,30.3c.05,14.17,11.1,30,26,29.3,11.34-.54,21.86-10.52,24-24.25H41c-2,8-8.25,13.74-15,14.14-9.56.57-17.24-9.64-17-19.19.22-9.06,7.61-18.67,17-18.19C32.6,12.45,38.72,17.69,41,25.25Z"/><polyline class="cls-1" points="58.04 5.95 58.04 59.65 66.7 59.65 66.7 37.76 86.59 37.76 86.59 59.65 96.36 59.65 96.36 5.08 87.15 5.08 87.15 27.27 66.7 27.27 67 5.04 58.04 5.04 56.94 5.04"/></g></g></svg>