<svg xmlns="http://www.w3.org/2000/svg" viewBox="0 0 93.8 82.71"><defs><style>.cls-1{fill:#836241;}.cls-1,.cls-2{stroke:#000;stroke-miterlimit:10;stroke-width:2px;}.cls-2{fill:#fff;}</style></defs><g id="Layer_2" data-name="Layer 2"><g id="Layer_1-2" data-name="Layer 1"><path class="cls-1" d="M1,58.29H12.5V39.1H25.05a168.39,168.39,0,0,0,8.36,17.17C40,68,43.51,73.7,50.14,77.49c8.75,5,20.85,5.84,30.32,1a22.43,22.43,0,0,0,9.41-8.08c5.38-8.71,2.56-20.19-2.09-27.28C85.08,39,80.05,35,70,27c-5.66-4.52-9.48-7.12-9.41-11.12a7.9,7.9,0,0,1,5.22-7.07c4-1.34,8.72,1.32,10.46,5.05,2.11,4.53-.87,8.85-1,9.09H85.69A16.82,16.82,0,0,0,82.55,7.78C74.93.31,64.08-.91,57.46,3.74c-4.32,3-7.23,8.84-6.27,14.14.74,4.11,4,6.78,10.45,12.13,4,3.27,6.88,4.86,12.55,10.1,1.7,1.57,2.55,2.36,3.14,3,1.49,1.71,8.6,10.4,5.22,19.19a16.35,16.35,0,0,1-7.32,8.09c-5.9,3.24-15.25,3.75-20.91-2-5.86-6-5.89-16.87,0-21.22,3.38-2.49,9.71-3.59,13.6,0,3.63,3.35,4,9.68,0,14.14h11.5c.25-1.17,2.09-10.4-4.19-17.17-7-7.53-19.69-7.41-27.18-2a18.75,18.75,0,0,0-6.27,8.08L34.46,35.06c.72-.56,7.78-6.15,7.32-15.16-.37-7.12-5.31-13.5-12.55-16.16H1Z"/><path class="cls-2" d="M13,27.71v-15H24a9.3,9.3,0,0,1,4,9,9.29,9.29,0,0,1-4,6Z"/></g></g></svg>